<svg width="0" height="0" class="hidden">
  <symbol fill="none" xmlns="http://www.w3.org/2000/svg" viewBox="0 0 24 24" id="add-to-cart">
    <g clip-path="url(#clip0_26947_683)">
      <path d="M23.8454 8.2243C23.7281 8.10906 23.5642 8.05442 23.4012 8.07624H17.0343V5.26295C17.0343 2.4826 14.7804 0.228699 12.0001 0.228699C9.21971 0.228699 6.96582 2.4826 6.96582 5.26295V8.07624H0.598861C0.421164 8.07624 0.243523 8.07624 0.154646 8.2243C0.0352739 8.33902 -0.0201042 8.5051 0.00659291 8.66851L2.22761 20.81C2.53789 22.5037 4.00034 23.7431 5.72199 23.7713H18.278C20.0046 23.7289 21.464 22.4797 21.7724 20.7804L23.9934 8.66851C24.0201 8.5051 23.9648 8.33902 23.8454 8.2243ZM8.1503 5.26295C8.1503 3.13682 9.87388 1.41324 12 1.41324C14.1261 1.41324 15.8497 3.13682 15.8497 5.26295V8.07624H8.1503V5.26295ZM20.5879 20.6323C20.3884 21.7547 19.4179 22.5759 18.278 22.5868H5.72199C4.58212 22.5759 3.61161 21.7547 3.41215 20.6323L1.30959 9.26078H22.6904L20.5879 20.6323Z" fill="black"></path>
      <path d="M16.4421 15.0354C16.7692 15.0354 17.0344 14.7702 17.0344 14.4431V12.6663C17.0344 12.3392 16.7692 12.074 16.4421 12.074C16.115 12.074 15.8499 12.3392 15.8499 12.6663V14.4431C15.8498 14.7702 16.115 15.0354 16.4421 15.0354Z" fill="black"></path>
      <path d="M7.55809 15.0354C7.8852 15.0354 8.15036 14.7702 8.15036 14.4431V12.6663C8.15036 12.3392 7.8852 12.074 7.55809 12.074C7.23098 12.074 6.96582 12.3392 6.96582 12.6663V14.4431C6.96582 14.7702 7.23098 15.0354 7.55809 15.0354Z" fill="black"></path>
    </g>
    <defs>
      <clipPath id="clip0_26947_683">
        <rect width="24" height="24" fill="white"></rect>
      </clipPath>
    </defs>
  </symbol>
  <symbol fill="none" xmlns="http://www.w3.org/2000/svg" viewBox="0 0 21 11" id="arrow-right-black">
    <path d="M-2.18557e-07 5.5L20 5.5M20 5.5L14.8649 10.5M20 5.5L14.8649 0.499999" stroke="black"></path>
  </symbol>
  <symbol fill="none" xmlns="http://www.w3.org/2000/svg" viewBox="0 0 21 21" id="facebook">
    <g clip-path="url(#clip0_4_682)">
      <path d="M18.5391 0H2.46094C1.1039 0 0 1.1039 0 2.46094V18.5391C0 19.8961 1.1039 21 2.46094 21H18.5391C19.8961 21 21 19.8961 21 18.5391V2.46094C21 1.1039 19.8961 0 18.5391 0ZM19.3594 18.5391C19.3594 18.9914 18.9914 19.3594 18.5391 19.3594H13.6992V13.3711H16.3253L16.6314 10.8281H13.6992V8.08008C13.6992 7.37865 14.2283 6.84961 14.9297 6.84961H16.7754V4.4707C16.2896 4.40213 15.3525 4.30664 14.9297 4.30664C13.973 4.30664 13.0141 4.71023 12.2989 5.41374C11.5621 6.13857 11.1562 7.08801 11.1562 8.08729V10.8281H8.49023V13.3711H11.1562V19.3594H2.46094C2.00864 19.3594 1.64062 18.9914 1.64062 18.5391V2.46094C1.64062 2.00864 2.00864 1.64062 2.46094 1.64062H18.5391C18.9914 1.64062 19.3594 2.00864 19.3594 2.46094V18.5391Z" fill="black"></path>
    </g>
    <defs>
      <clipPath id="clip0_4_682">
        <rect width="21" height="21" fill="white"></rect>
      </clipPath>
    </defs>
  </symbol>
  <symbol fill="none" xmlns="http://www.w3.org/2000/svg" viewBox="0 0 22 23" id="instagram">
    <g clip-path="url(#clip0_4_672)">
      <path d="M15.6094 0.5H6.39066C2.86683 0.5 0 3.36683 0 6.89066V16.1093C0 19.6332 2.86683 22.5 6.39066 22.5H15.6093C19.1332 22.5 22 19.6332 22 16.1094V6.89066C22 3.36683 19.1332 0.5 15.6094 0.5ZM20.2812 16.1093C20.2812 18.6854 18.1854 20.7812 15.6094 20.7812H6.39066C3.81455 20.7812 1.71875 18.6854 1.71875 16.1094V6.89066C1.71875 4.31455 3.81455 2.21875 6.39066 2.21875H15.6093C18.1854 2.21875 20.2812 4.31455 20.2812 6.89066V16.1093Z" fill="black"></path>
      <path d="M11 5.57031C7.73034 5.57031 5.07031 8.23034 5.07031 11.5C5.07031 14.7697 7.73034 17.4297 11 17.4297C14.2697 17.4297 16.9297 14.7697 16.9297 11.5C16.9297 8.23034 14.2697 5.57031 11 5.57031ZM11 15.7109C8.6781 15.7109 6.78906 13.8219 6.78906 11.5C6.78906 9.1781 8.6781 7.28906 11 7.28906C13.3219 7.28906 15.2109 9.1781 15.2109 11.5C15.2109 13.8219 13.3219 15.7109 11 15.7109Z" fill="black"></path>
      <path d="M17.0156 6.34375C17.4902 6.34375 17.875 5.95899 17.875 5.48438C17.875 5.00976 17.4902 4.625 17.0156 4.625C16.541 4.625 16.1562 5.00976 16.1562 5.48438C16.1562 5.95899 16.541 6.34375 17.0156 6.34375Z" fill="black"></path>
    </g>
    <defs>
      <clipPath id="clip0_4_672">
        <rect width="22" height="22" fill="white" transform="translate(0 0.5)"></rect>
      </clipPath>
    </defs>
  </symbol>
  <symbol fill="none" xmlns="http://www.w3.org/2000/svg" viewBox="0 0 19 25" id="logo">
    <path d="M18.5169 22.6493L18.1587 20.9776C17.4206 17.5332 16.0682 14.2964 14.1386 11.3529V8.64058C15.0275 7.97178 15.6035 6.9084 15.6035 5.71289V4.24805C15.6035 3.84355 15.2756 3.51562 14.8711 3.51562H14.1386V0.732422C14.1386 0.32793 13.8107 0 13.4062 0C13.0017 0 12.6738 0.32793 12.6738 0.732422V3.52339C11.3584 3.6001 10.2059 4.29209 9.49997 5.31528C8.79406 4.29209 7.64157 3.6001 6.32614 3.52339V0.732422C6.32614 0.32793 5.99821 0 5.59372 0C5.18922 0 4.86129 0.32793 4.86129 0.732422V3.51562H4.12887C3.72438 3.51562 3.39645 3.84355 3.39645 4.24805V5.71289C3.39645 6.9084 3.97243 7.97178 4.86129 8.64058V11.3529C2.9317 14.2964 1.57931 17.5332 0.841226 20.9776L0.483022 22.6493C0.40646 23.0066 0.605044 23.3658 0.948501 23.4909C3.69738 24.4923 6.57448 25 9.49997 25C12.4255 25 15.3026 24.4923 18.0514 23.4909C18.3949 23.3658 18.5935 23.0067 18.5169 22.6493ZM12.9179 4.98047H14.1386V5.71289C14.1386 6.92446 13.1529 7.91016 11.9414 7.91016H10.2324V7.66602C10.2324 6.1852 11.4371 4.98047 12.9179 4.98047ZM4.86129 4.98047H6.082C7.56281 4.98047 8.76755 6.1852 8.76755 7.66602V7.91016H7.05856C5.84699 7.91016 4.86129 6.92446 4.86129 5.71289V4.98047ZM7.05856 9.375H11.9414C12.1922 9.375 12.4371 9.34956 12.6738 9.30132V10.8398H6.32614V9.30132C6.56286 9.34956 6.80778 9.375 7.05856 9.375ZM9.49997 23.5352C6.95846 23.5352 4.45558 23.128 2.0507 22.3244L2.2735 21.2846C2.96115 18.0757 4.21051 15.0566 5.98898 12.3047L13.0109 12.3047C14.7894 15.0566 16.0387 18.0757 16.7264 21.2845L16.9492 22.3244C14.5444 23.128 12.0415 23.5352 9.49997 23.5352Z" fill="black"></path>
  </symbol>
  <symbol fill="none" xmlns="http://www.w3.org/2000/svg" viewBox="0 0 27 27" id="phone">
    <g clip-path="url(#clip0_26947_671)">
      <path d="M8.25235 7.81643C6.75052 9.31823 6.75052 11.7618 8.25232 13.2636L9.05001 12.4659C7.9881 11.404 7.98807 9.67613 9.05004 8.61417C10.112 7.55224 11.8399 7.55224 12.9018 8.61414L13.6995 7.81646C12.1977 6.31463 9.75412 6.31466 8.25235 7.81643Z" fill="#6E9C9F"></path>
      <path d="M9.84133 9.39119C9.20916 10.0234 9.20913 11.052 9.8413 11.6842L10.639 10.8865C10.5458 10.7934 10.4945 10.6695 10.4945 10.5377C10.4945 10.406 10.5459 10.2821 10.639 10.1889C10.7322 10.0958 10.8561 10.0444 10.9878 10.0444C11.1196 10.0444 11.2435 10.0958 11.3366 10.1889L12.1343 9.39122C11.5022 8.75902 10.4735 8.75902 9.84133 9.39119Z" fill="#6E9C9F"></path>
      <path d="M19.7482 7.43513L17.855 5.54848L13.9233 9.47367L15.4475 11.0478C15.1921 11.5013 14.6378 12.3699 13.6933 13.3145C12.7486 14.2592 11.8736 14.8197 11.4158 15.0792L9.87255 13.5556L6.0022 17.4029L7.88504 19.2983C8.60479 20.0181 9.69992 20.2046 10.6101 19.7625C11.9991 19.0879 14.0954 17.8431 16.1942 15.7443C18.2931 13.6455 19.5378 11.5492 20.2124 10.1602C20.3723 9.83109 20.4499 9.47787 20.4499 9.12692C20.4499 8.5072 20.2077 7.89464 19.7482 7.43513ZM19.1977 9.66732C18.5609 10.9785 17.3845 12.9587 15.3965 14.9466C13.4086 16.9345 11.4284 18.1109 10.1173 18.7477C9.63929 18.9799 9.06281 18.8806 8.68414 18.5019L7.59739 17.4079L9.87537 15.1436L11.1901 16.4415L11.5418 16.2849C11.599 16.2595 12.9594 15.6438 14.4911 14.1121C16.0238 12.5795 16.6266 11.2305 16.6515 11.1739L16.804 10.8268L15.5067 9.48705L17.8558 7.14178L18.9511 8.23327C19.3306 8.6133 19.4298 9.18952 19.1977 9.66732Z" fill="#6E9C9F"></path>
    </g>
    <defs>
      <clipPath id="clip0_26947_671">
        <rect width="17" height="17" fill="white" transform="translate(6 3)"></rect>
      </clipPath>
    </defs>
  </symbol>
  <symbol fill="none" xmlns="http://www.w3.org/2000/svg" viewBox="0 0 23 23" id="twitter">
    <path d="M20.2712 5.16525L20.2598 5.12109C21.2343 4.53688 22.0211 3.5738 22.3711 2.4707C21.4584 3.01367 20.3904 3.42561 19.3164 3.63867C18.4552 2.7211 17.3061 2.15625 15.9473 2.15625C13.3429 2.15625 11.1855 4.26475 11.1855 6.87305C11.1855 7.24419 11.238 7.60752 11.3203 7.95117V7.99609C7.43875 7.77436 3.92429 5.80031 1.61719 2.96484C1.21231 3.66248 0.988281 4.65939 0.988281 5.52539C0.988281 6.87305 1.78852 8.67805 3.05469 9.52344V9.61328C2.29865 9.58278 1.52429 9.06195 0.898438 8.71484C0.898438 8.73546 0.92584 8.76026 0.92584 8.78088C0.92584 11.0696 2.6034 13.0436 4.76172 13.4766C4.38559 13.5761 3.85582 13.6562 3.45898 13.6562C3.15361 13.6562 2.84877 13.5765 2.56055 13.5215C3.16102 15.3978 4.89648 16.6211 6.96289 16.6211V16.666C5.35446 17.913 3.31577 18.7773 1.12305 18.7773C0.742154 18.7773 0.269531 18.7324 0 18.6875C2.08622 20.0277 4.56631 20.8438 7.23242 20.8438C15.9102 20.8438 20.6641 13.7012 20.6641 7.45703V6.82812C21.5871 6.16144 22.3686 5.26098 23 4.3125C23 4.3125 21.3439 5.09724 20.2712 5.16525ZM18.8672 7.45703C18.8672 8.80523 18.6031 10.221 18.1035 11.5512C17.5785 12.9492 16.8227 14.2107 15.8574 15.3005C14.3434 17.0096 11.6181 19.0469 7.23242 19.0469C7.10354 19.0469 6.97488 19.0446 6.84623 19.0402C7.26966 18.7945 7.67661 18.5211 8.06384 18.2209L8.75977 17.6814V16.8008V16.6211V14.8242L8.0195 14.816C7.21005 14.807 6.55859 14.1483 6.55859 13.3388V11.8696L5.58689 11.6502C5.1569 11.5531 4.85156 11.1711 4.85156 10.7303V9.61328V9.47852L4.8291 8.5626L4.02999 8.02907C3.6849 7.73874 3.37215 7.32406 3.14934 6.87529C5.50724 8.59481 8.30758 9.62379 11.2178 9.79005L13.1172 9.89854V7.99609V7.95117V7.73892L13.0677 7.5325C13.0111 7.29626 12.9824 7.07439 12.9824 6.87305C12.9824 6.09931 13.2911 5.3687 13.8517 4.81576C14.4156 4.25949 15.1598 3.95312 15.9473 3.95312C16.7434 3.95312 17.4362 4.26106 18.0063 4.86841L18.4647 5.35684L18.5202 5.57112L18.5316 5.61528L18.8672 6.91262V7.45703Z" fill="black"></path>
  </symbol>
</svg>